SOURCE: HDTV x264 25fps (4.8GB)
 
http://www.imdb.com/title/tt0105150/
 
http://www.rottentomatoes.com/m/playboys/


- SAMPLE: Yes

- SUBTITLES: No

- LANGUAGE: English


COVERS
----------
 
http://someimage.com/SBT4PHE
 
http://someimage.com/Zg3J19O


DIRECTOR: Gillies MacKinnon


CAST:
--------
Albert Finney, Aidan Quinn, Robin Wright, Adrian Dunbar, Milo O'Shea, Niamh
Cusack, Ian McElhinney

PLOT:
-------
A young woman, Tara Maguire (Robin Wright) scandalizes her provincial Irish village in the 1950s by having a baby out of a wedlock, and refusing to name the father. She has a rare beauty and every man in town desires her, especially Sergeant Hegarty (Albert Finney). The arrival of a dramatic troupe stirs things up even more, especially when she falls in love with one of the
"Playboys", Tom Casey (Aidan Quinn).


General
-----------
Format : AVI
Format/Info : Audio Video Interleave
File size : 900 MiB
Duration : 1h 44mn
Overall bit rate : 1204 Kbps
Writing application : VirtualDubMod 1.5.10.3
Writing library : VirtualDubMod build 2550


Video
---------

Format : MPEG-4 Visual
Format profile : Advanced Simple@L5
Format settings, BVOP : 1
Format settings, QPel : No
Format settings, GMC : No warppoints
Format settings, Matrix : Custom
Codec ID : XVID
Codec ID/Hint : XviD
Duration : 1h 44mn
Bit rate : 1069 Kbps
Width : 624 pixels
Height : 352 pixels
Display aspect ratio : 16:9
Frame rate : 25.000 fps
Color space : YUV
Chroma subsampling : 4:2:0
Bit depth : 8 bits
Scan type : Progressive
Compression mode : Lossy
Bits/(Pixel*Frame) : 0.195
Stream size : 799 MiB (89%)
Writing library : XviD 64

Audio
-----------
Format : MPEG Audio
Format version : Version 1
Format profile : Layer 3
Mode : Joint stereo
Mode extension : MS Stereo
Codec ID : 55
Codec ID/Hint : MP3
Duration : 1h 44mn
Bit rate mode : Constant
Bit rate : 128 Kbps
Channel(s) : 2 channels
Sampling rate : 48.0 KHz
Compression mode : Lossy
Stream size : 95.7 MiB (11%)
Alignment : Aligned on interleaves
Interleave, duration : 80 ms (2.00 video frames)
Interleave, preload duration : 504 ms
Writing library : LAME3.99.5
Language : English